<svg xmlns="http://www.w3.org/2000/svg" width="1024" height="1024"><path d="M469.333 938.667c-2.047.04-4.461.063-6.88.063-111.491 0-211.696-48.319-280.816-125.159l-.304-.344c-59.472-67.3-95.78-156.281-95.78-253.743 0-18.554 1.316-36.8 3.859-54.651l-.239 2.047C121.561 267.572 324.539 85.052 570.147 85.052c5.809 0 11.595.102 17.355.305l-.835-.023c109.879 3.17 207.541 52.913 274.373 130.087l.4.473c49.387 65.279 79.106 147.826 79.106 237.315 0 26.99-2.703 53.349-7.854 78.821l.428-2.536-8.533 67.84c-12.899 96.758-94.884 170.624-194.129 170.667h-.004c-31.654-.165-60.061-13.929-79.7-35.743l-.086-.097a104.519 104.519 0 0 1-24.631-48.816l-.116-.677c-37.16 26.681-83.565 42.667-133.704 42.667h-.284.015c-.86.014-1.876.022-2.893.022-56.409 0-107.099-24.49-142.016-63.417l-.158-.179c-30.873-34.468-49.747-80.241-49.747-130.422 0-8.622.557-17.113 1.637-25.441l-.104.983c16.44-116.441 114.111-205.436 233.104-208.208l.283-.005c.687-.009 1.499-.014 2.312-.014 52.436 0 100.048 20.653 135.145 54.267l-.07-.067a42.493 42.493 0 0 1 29.031-11.399c1.798 0 3.57.111 5.31.327l-.208-.021c21.394 2.508 37.837 20.53 37.837 42.392 0 1.751-.105 3.476-.31 5.172l.02-.204-32 269.653a20.284 20.284 0 0 0-.129 2.319c0 5.547 2.16 10.59 5.685 14.332l-.01-.011c3.846 4.442 9.488 7.239 15.784 7.253h.003c55.887-.141 102.052-41.586 109.586-95.415l.067-.585 8.107-67.413c4.257-19.401 6.695-41.687 6.695-64.542 0-69.195-22.35-133.17-60.224-185.1l.623.896c-52.323-59.704-128.268-97.598-213.092-98.984l-.242-.003a383.614 383.614 0 0 0-14.004-.247c-201.267 0-367.572 149.686-393.665 343.806l-.224 2.041c-1.849 12.546-2.904 27.029-2.904 41.759 0 75.755 27.924 144.987 74.042 197.965l-.31-.364c54.223 59.628 132.113 96.909 218.71 96.909 2.01 0 4.016-.02 6.016-.06l-.299.005c41.609-.187 81.483-7.359 118.591-20.404l-2.538.777c5.161-2.39 11.201-3.784 17.566-3.784 23.564 0 42.667 19.103 42.667 42.667 0 19.8-13.487 36.45-31.776 41.264l-.297.066c-42.855 15.679-92.334 24.747-143.931 24.747h-.298.015zM532.053 384c-75.93 1.948-137.992 58.861-147.965 132.328l-.088.792c-.71 4.714-1.115 10.154-1.115 15.689 0 27.644 10.111 52.926 26.837 72.349l-.122-.145c19.66 21.546 47.859 35.011 79.203 35.011.805 0 1.609-.009 2.41-.027l-.119.002c75.728-2.958 137.457-59.266 148.794-132.241l.112-.879c.746-4.75 1.173-10.228 1.173-15.806 0-59.146-47.947-107.093-107.093-107.093-.712 0-1.423.007-2.132.021l.106-.002z"/></svg>