<?xml version="1.0" encoding="iso-8859-1"?>
<!-- Uploaded to: SVG Repo, www.svgrepo.com, Generator: SVG Repo Mixer Tools -->
<!DOCTYPE svg PUBLIC "-//W3C//DTD SVG 1.1//EN" "http://www.w3.org/Graphics/SVG/1.1/DTD/svg11.dtd">
<svg fill="#000000" height="800px" width="800px" version="1.1" id="Capa_1" xmlns="http://www.w3.org/2000/svg" xmlns:xlink="http://www.w3.org/1999/xlink" 
	 viewBox="0 0 273.011 273.011" xml:space="preserve">
<g>
	<path d="M218.959,209.067H54.051c-17.658,0-31.972,14.314-31.972,31.972s14.314,31.972,31.972,31.972h164.908
		c17.658,0,31.972-14.314,31.972-31.972S236.617,209.067,218.959,209.067z"/>
	<path d="M81.083,142.099c1.407-1.407,3.314-2.197,5.304-2.197c1.989,0,3.897,0.79,5.304,2.196l19.589,19.59l19.589-19.59
		c2.93-2.928,7.678-2.928,10.607,0l19.589,19.59l19.589-19.59c1.407-1.406,3.315-2.196,5.304-2.196c1.989,0,3.896,0.79,5.304,2.197
		l19.588,19.589l10.771-10.771c-1.517-5.446-3.295-10.968-5.307-16.478l-0.16,0.16c-1.407,1.406-3.314,2.196-5.304,2.196
		c-1.989,0-3.896-0.79-5.304-2.197l-19.588-19.589l-19.589,19.59c-1.465,1.464-3.385,2.196-5.304,2.196
		c-1.919,0-3.839-0.732-5.304-2.196l-19.589-19.59l-19.589,19.59c-2.93,2.928-7.678,2.928-10.607,0l-19.589-19.59l-19.588,19.589
		c-1.407,1.407-3.314,2.197-5.304,2.197c-1.837,0-3.599-0.681-4.967-1.891c-2.007,5.533-3.774,11.074-5.28,16.537l10.247,10.247
		L81.083,142.099z"/>
	<path d="M225.599,168.152l-9.446,9.446c-1.407,1.406-3.314,2.196-5.304,2.196c-1.989,0-3.896-0.79-5.304-2.197l-19.588-19.589
		l-19.589,19.59c-1.465,1.464-3.385,2.196-5.304,2.196c-1.919,0-3.839-0.732-5.304-2.196l-19.589-19.59l-19.589,19.59
		c-2.93,2.928-7.678,2.928-10.607,0l-19.589-19.59l-19.588,19.589c-1.407,1.407-3.314,2.197-5.304,2.197
		c-1.989,0-3.897-0.79-5.304-2.196l-8.879-8.879c-1.408,7.942-2.156,15.475-2.156,22.271h182.697
		C227.854,184.033,227.072,176.303,225.599,168.152z"/>
	<path d="M86.387,96.902c1.989,0,3.897,0.79,5.304,2.196l19.589,19.59l19.589-19.59c2.93-2.928,7.678-2.928,10.607,0l19.589,19.59
		l19.589-19.59c1.407-1.406,3.315-2.196,5.304-2.196c1.989,0,3.896,0.79,5.304,2.197l17.807,17.808
		c-12.772-27.557-31.164-52.303-52.345-62.417c6.599-5.685,10.783-14.096,10.783-23.49c0-17.121-13.879-31-31-31
		c-17.121,0-31,13.879-31,31c0,9.393,4.183,17.804,10.782,23.488c-20.863,9.962-39.021,34.118-51.767,61.174l16.563-16.563
		C82.49,97.692,84.398,96.902,86.387,96.902z"/>
</g>
</svg>