<svg xmlns="http://www.w3.org/2000/svg" width="1024" height="1024"><path d="M768 896v42.667c23.565 0 42.667-19.102 42.667-42.667H768zm-512 0h-42.667c0 23.565 19.103 42.667 42.667 42.667V896zm488.704-763.35zm18.645 18.646zM279.296 132.65zm-18.646 18.646zM384 256c-23.564 0-42.667 19.103-42.667 42.667s19.103 42.667 42.667 42.667v-85.333zm42.667 85.333c23.565 0 42.667-19.103 42.667-42.667s-19.102-42.667-42.667-42.667v85.333zM384 384c-23.564 0-42.667 19.103-42.667 42.667s19.103 42.667 42.667 42.667v-85.333zm42.667 85.333c23.565 0 42.667-19.102 42.667-42.667s-19.102-42.667-42.667-42.667v85.333zM597.333 384c-23.565 0-42.667 19.103-42.667 42.667s19.102 42.667 42.667 42.667v-85.333zM640 469.333c23.565 0 42.667-19.102 42.667-42.667S663.565 383.999 640 383.999v85.333zM597.333 512c-23.565 0-42.667 19.102-42.667 42.667s19.102 42.667 42.667 42.667v-85.333zM640 597.333c23.565 0 42.667-19.102 42.667-42.667S663.565 511.999 640 511.999v85.333zM384 512c-23.564 0-42.667 19.102-42.667 42.667s19.103 42.667 42.667 42.667v-85.333zm42.667 85.333c23.565 0 42.667-19.102 42.667-42.667s-19.102-42.667-42.667-42.667v85.333zM597.333 256c-23.565 0-42.667 19.103-42.667 42.667s19.102 42.667 42.667 42.667v-85.333zM640 341.333c23.565 0 42.667-19.103 42.667-42.667S663.565 255.999 640 255.999v85.333zM324.267 170.667h375.467V85.334H324.267v85.333zm401.066 25.6V896h85.333V196.267h-85.333zM768 853.333H256v85.333h512v-85.333zM298.667 896V196.267h-85.333V896h85.333zm401.066-725.333c12.651 0 19.575.033 24.55.439 4.476.366 3.503.811 1.05-.439l38.741-76.032c-11.58-5.901-23.091-7.781-32.845-8.578-9.254-.756-20.254-.723-31.497-.723v85.333zm110.934 25.6c0-11.244.034-22.243-.721-31.498-.798-9.753-2.679-21.262-8.58-32.843l-76.032 38.74c-1.25-2.454-.806-3.425-.439 1.051.405 4.975.439 11.897.439 24.549h85.333zm-85.334-25.6 76.032-38.74a85.324 85.324 0 0 0-37.291-37.292l-38.741 76.032zM324.267 85.333c-11.244 0-22.243-.033-31.498.723-9.753.797-21.262 2.677-32.843 8.578l38.74 76.032c-2.454 1.25-3.425.805 1.051.439 4.975-.406 11.897-.439 24.549-.439V85.333zm-25.6 110.934c0-12.652.033-19.575.439-24.549.366-4.476.811-3.505-.439-1.051l-76.032-38.74c-5.901 11.581-7.781 23.089-8.578 32.843-.756 9.255-.723 20.254-.723 31.498h85.333zM259.926 94.634a85.326 85.326 0 0 0-37.292 37.292l76.032 38.74-38.74-76.032zM384 341.333h42.667V256H384v85.333zm0 128h42.667V384H384v85.333zm213.333 0H640V384h-42.667v85.333zm0 128H640V512h-42.667v85.333zm-213.333 0h42.667V512H384v85.333zm213.333-256H640V256h-42.667v85.333zM554.667 768v128H640V768h-85.333zm-85.334 128V768H384v128h85.333zM512 725.333c23.565 0 42.667 19.102 42.667 42.667H640c0-70.694-57.306-128-128-128v85.333zM512 640c-70.694 0-128 57.306-128 128h85.333c0-23.565 19.102-42.667 42.667-42.667V640z"/></svg>