<svg xmlns="http://www.w3.org/2000/svg" enable-background="new 0 0 66 66" viewBox="0 0 66 66" id="cap">
  <path d="M17.2,41c-5,0.8-11.1,1.7-16.2,1.4V37c0-11.8,7.8-21.8,18.4-24.9C15.2,18.1,15.8,30.7,17.2,41z"></path>
  <path d="M21.9,12.6c1.4-1.5,2.6-1.5,4.4-1.5c1.7,0,3.3,0.2,4.9,0.5c7.1,5,11.9,14.1,13.1,24.5c-7.4,0.8-16,2.9-24.9,4.5
		C17.5,26.5,18.3,16.3,21.9,12.6z"></path>
  <path d="M46.6 35.9C45.6 27 42 19 36.7 13.4c8.5 3.9 14.5 12.4 14.9 22.4C49.9 35.7 48.3 35.7 46.6 35.9zM65 47.3c-7 0-15.8 7.4-27.5 7.6-7.1.2-14.7-5.4-21.4-11.4 13.4-2.2 27.7-6.2 36.2-5.4C56.3 41.6 61.2 44.4 65 47.3z"></path>
</svg>
