<svg xmlns="http://www.w3.org/2000/svg" viewBox="0 0 64 64" id="christmas-sweater">
  <g>
    <path d="M57.094 18.509c-.053-.8-.635-7.355-5.53-10.064-.082-.045-12.313-6.411-12.317-6.412a1 1 0 0 0-.5-.133H25.42a.988.988 0 0 0-.49.129S12.668 8.416 12.617 8.444c-4.906 2.7-5.488 9.261-5.541 10.065-.2 1.056-4.9 31.352-4.9 32.811a1 1 0 0 0 1 1h8.68a1 1 0 0 0 .982-.808L15.1 39.953l.366 6.894L15.48 61a1 1 0 0 0 1 1h31.21a1 1 0 0 0 1-1l-.018-14.1.373-7.093 2.273 11.707a1 1 0 0 0 .982.809h8.69a1 1 0 0 0 1-1c0-1.45-4.7-31.758-4.896-32.814ZM12.525 42.69H5.068c1.4-9.909 4-23.964 4-24.008s.294-4.809 3.169-7.5c.708 7.5 2.3 19.7 2.418 20.57Zm32.527 5.147a1 1 0 0 1 1 1v.9a1 1 0 0 1-2 0v-.9a1 1 0 0 1 1-1Zm-.91-1.72a.905.905 0 1 1 .91.91.9.9 0 0 1-.91-.91Zm.91-1.71a1 1 0 0 1-1-1V42.5a1 1 0 0 1 2 0v.91a1 1 0 0 1-1 .997Zm-2.29-31.52a1 1 0 0 1 2 0v.91a1 1 0 0 1-2 0Zm1.91 3.62a.905.905 0 1 1-1.81 0 .905.905 0 0 1 1.81 0Zm-1.91 2.72a1 1 0 0 1 2 0v.91a1 1 0 0 1-2 0Zm.1 14.59h-.91a1 1 0 0 1 0-2h.91a1 1 0 0 1 0 2Zm.47 12.3a1 1 0 0 1-1 1h-.91a1 1 0 0 1 0-2h.91a1 1 0 0 1 1 1Zm-1.29-29.61a.99.99 0 0 1-1 1h-.9a1 1 0 0 1 0-2h.9a1 1 0 0 1 1 1Zm-2.81 18.02a1 1 0 0 1 1 1v.91a1 1 0 0 1-2 0v-.91a1 1 0 0 1 1-1Zm-.9-1.72a.905.905 0 0 1 1.81 0 .905.905 0 1 1-1.81 0Zm.9-1.71a1 1 0 0 1-1-1v-.91a1 1 0 1 1 2 0v.91a1 1 0 0 1-1 1.003Zm.336-24.826c.308-.358.929-1.2.956-1.239l.641.349a13.374 13.374 0 0 1-6.316 5.085l-.871-.129-.162-.325a10.948 10.948 0 0 0 5.752-3.741Zm-6.324 8.116.128.754-.678-.357a1.654 1.654 0 0 0-1.53 0l-.676.356.124-.734a1.591 1.591 0 0 0-.465-1.464l-.553-.538.775-.117a1.633 1.633 0 0 0 1.217-.884l.344-.692.345.7a1.629 1.629 0 0 0 1.228.882l.766.114-.549.535a1.587 1.587 0 0 0-.476 1.445Zm-1.252 29.2a1 1 0 0 1 1 1v.9a1 1 0 0 1-2 0v-.9a1 1 0 0 1 1-1Zm-.91-1.72a.905.905 0 1 1 .91.91.9.9 0 0 1-.91-.91Zm.91-1.72a1 1 0 0 1-1-1v-.9a1 1 0 1 1 2 0v.9a1 1 0 0 1-1 1Zm0-11.77a1 1 0 0 1-1-1v-.9a1 1 0 1 1 2 0v.9a1 1 0 0 1-1 1Zm-.91-4.62a.905.905 0 1 1 1.81 0 .905.905 0 0 1-1.81 0Zm.91-1.72a1 1 0 0 1-1-1v-.9a1 1 0 0 1 2 0v.9a1 1 0 0 1-1 1Zm-3.62 18.83h.9a1 1 0 0 1 0 2h-.9a1 1 0 0 1 0-2Zm-1.91-8.05a1 1 0 0 1 1-1h.91a1 1 0 0 1 0 2h-.91a1 1 0 0 1-1-1Zm2.81-8.06h-.9a1 1 0 0 1 0-2h.9a1 1 0 0 1 0 2ZM27.831 6.62h8.5a6.678 6.678 0 0 1-8.5 0ZM34.7 22.757h.91a1 1 0 0 1 0 2h-.91a1 1 0 0 1 0-2Zm0 18.11h.91a1 1 0 0 1 0 2h-.91a1 1 0 0 1 0-2Zm1.82-7.05h-.91a1 1 0 0 1 0-2h.91a1 1 0 0 1 0 2ZM25.68 3.9h12.805l.277.157c-.01.014-.328.428-.436.563H25.834c-.11-.137-.428-.552-.435-.563Zm-2.044 1.134c.027.04.64.868.944 1.224l.009.012a11.087 11.087 0 0 0 5.489 3.673l-.2.4-.654.1A13.4 13.4 0 0 1 23 5.381c.225-.121.436-.236.636-.347Zm1.106 29.493a1 1 0 0 1 1 1v.91a1 1 0 0 1-2 0v-.91a1 1 0 0 1 1-1Zm-.9-1.72a.905.905 0 0 1 1.81 0 .905.905 0 1 1-1.81 0Zm.9-1.71a1 1 0 0 1-1-1v-.91a1 1 0 0 1 2 0v.91a1 1 0 0 1-1 1.003Zm-1.81-15.59h.91a1 1 0 0 1 0 2h-.91a1 1 0 0 1 0-2Zm-1.28 29.61h.9a1 1 0 0 1 0 2h-.9a1 1 0 0 1 0-2Zm-1.53-12.3a1 1 0 0 1 1-1h.91a1 1 0 1 1 0 2h-.91a1 1 0 0 1-1-1Zm-.9-19.93a1 1 0 0 1 2 0v.91a1 1 0 1 1-2 0Zm1.9 3.62a.905.905 0 1 1-.9-.9.9.9 0 0 1 .9.9Zm-1.9 2.72a1 1 0 1 1 2 0v.91a1 1 0 0 1-2 0Zm.71 23.27v.91a1 1 0 0 1-2 0V42.5a1 1 0 0 1 2 0Zm-1 5.34a1 1 0 0 1 1 1v.9a1 1 0 0 1-2 0v-.9a1 1 0 0 1 1-1Zm-.91-1.72a.91.91 0 1 1 .91.91.9.9 0 0 1-.91-.91Zm-2.43-29.61a1 1 0 0 1 1-1h.91a1 1 0 0 1 0 2h-.91a1 1 0 0 1-1-1ZM46.69 60h-1.909v-2.393a1 1 0 0 0-2 0V60h-1.9v-2.393a1 1 0 0 0-2 0V60h-1.9v-2.393a1 1 0 0 0-2 0V60h-1.9v-2.393a1 1 0 0 0-2 0V60h-1.9v-2.393a1 1 0 0 0-2 0V60h-1.9v-2.393a1 1 0 0 0-2 0V60h-1.9v-2.393a1 1 0 0 0-2 0V60H17.48v-4.773h29.21Zm.692-42.493h-.9a1 1 0 0 1 0-2h.9a1 1 0 0 1 0 2Zm4.263 25.183-2.142-11c.2-1.5 1.7-13.095 2.413-20.53 2.891 2.7 3.182 7.469 3.185 7.524s2.6 14.1 4 24.008Z"></path>
    <path d="M55.1 33.6a1 1 0 0 0-1 1v.9a1 1 0 1 0 2 0v-.9a1 1 0 0 0-1-1zm-1-5.343v.9a1 1 0 1 0 2 0v-.9a1 1 0 0 0-2 0zm-1.716 2.622h-.905a1 1 0 0 0 0 2h.905a1 1 0 1 0 0-2zm2.716 1.906a.906.906 0 1 0-.906-.906.906.906 0 0 0 .906.906zM8.915 33.6a1 1 0 0 0-1 1v.9a1 1 0 0 0 2 0v-.9a1 1 0 0 0-1-1zm0-6.343a1 1 0 0 0-1 1v.9a1 1 0 0 0 2 0v-.9a1 1 0 0 0-1-1zm1.717 4.622a1 1 0 0 0 1 1h.905a1 1 0 1 0 0-2h-.905a1 1 0 0 0-1 1zm-1.717.906a.906.906 0 1 0-.906-.906.906.906 0 0 0 .906.906z"></path>
  </g>
</svg>
