<svg xmlns="http://www.w3.org/2000/svg" width="1024" height="1024" id="city"><path d="M985.6 409.6H768V140.8c0-21.216-17.184-38.4-38.4-38.4H499.2c-21.216 0-38.4 17.184-38.4 38.4V256H358.4V128c0-14.144-11.456-25.6-25.6-25.6h-25.6c-14.144 0-25.6 11.456-25.6 25.6v128H179.2V128c0-14.144-11.456-25.6-25.6-25.6H128c-14.144 0-25.6 11.456-25.6 25.6v128h-64C17.184 256 0 273.184 0 294.4v576c0 28.272 22.928 51.2 51.2 51.2h921.6c28.272 0 51.2-22.928 51.2-51.2V448c0-21.216-17.2-38.4-38.4-38.4zM204.8 748.8c0 10.608-8.592 19.2-19.2 19.2h-64c-10.608 0-19.2-8.592-19.2-19.2v-64c0-10.608 8.592-19.2 19.2-19.2h64c10.608 0 19.2 8.592 19.2 19.2v64zm0-153.6c0 10.608-8.592 19.2-19.2 19.2h-64c-10.608 0-19.2-8.592-19.2-19.2v-64c0-10.608 8.592-19.2 19.2-19.2h64c10.608 0 19.2 8.592 19.2 19.2v64zm0-153.6c0 10.608-8.592 19.2-19.2 19.2h-64c-10.608 0-19.2-8.592-19.2-19.2v-64c0-10.608 8.592-19.2 19.2-19.2h64c10.608 0 19.2 8.592 19.2 19.2v64zm204.8 307.2c0 10.608-8.592 19.2-19.2 19.2h-64c-10.608 0-19.2-8.592-19.2-19.2v-64c0-10.608 8.592-19.2 19.2-19.2h64c10.608 0 19.2 8.592 19.2 19.2v64zm0-153.6c0 10.608-8.592 19.2-19.2 19.2h-64c-10.608 0-19.2-8.592-19.2-19.2v-64c0-10.608 8.592-19.2 19.2-19.2h64c10.608 0 19.2 8.592 19.2 19.2v64zm0-153.6c0 10.608-8.592 19.2-19.2 19.2h-64c-10.608 0-19.2-8.592-19.2-19.2v-64c0-10.608 8.592-19.2 19.2-19.2h64c10.608 0 19.2 8.592 19.2 19.2v64zm256 153.6c0 10.608-8.592 19.2-19.2 19.2h-64c-10.608 0-19.2-8.592-19.2-19.2v-64c0-10.608 8.592-19.2 19.2-19.2h64c10.608 0 19.2 8.592 19.2 19.2v64zm0-153.6c0 10.608-8.592 19.2-19.2 19.2h-64c-10.608 0-19.2-8.592-19.2-19.2v-64c0-10.608 8.592-19.2 19.2-19.2h64c10.608 0 19.2 8.592 19.2 19.2v64zm0-153.6c0 10.608-8.592 19.2-19.2 19.2h-64c-10.608 0-19.2-8.592-19.2-19.2v-64c0-10.608 8.592-19.2 19.2-19.2h64c10.608 0 19.2 8.592 19.2 19.2v64zm256 460.8c0 10.608-8.592 19.2-19.2 19.2h-64c-10.608 0-19.2-8.592-19.2-19.2v-64c0-10.608 8.592-19.2 19.2-19.2h64c10.608 0 19.2 8.592 19.2 19.2v64zm0-153.6c0 10.608-8.592 19.2-19.2 19.2h-64c-10.608 0-19.2-8.592-19.2-19.2v-64c0-10.608 8.592-19.2 19.2-19.2h64c10.608 0 19.2 8.592 19.2 19.2v64z"/></svg>