<svg xmlns="http://www.w3.org/2000/svg" width="1024" height="1024"><path d="M885.15 142.016c-16.661-16.663-43.678-16.663-60.339 0L513.583 453.243 202.357 142.016c-16.662-16.663-43.677-16.663-60.34 0s-16.663 43.677 0 60.34l311.226 311.227-311.225 311.223c-16.663 16.666-16.663 43.678 0 60.343 16.662 16.661 43.677 16.661 60.34 0l311.225-311.228 311.228 311.228c16.661 16.661 43.678 16.661 60.339 0 16.661-16.666 16.661-43.678 0-60.339L573.922 513.582 885.15 202.355c16.661-16.662 16.661-43.677 0-60.34z"/></svg>