<svg xmlns="http://www.w3.org/2000/svg" viewBox="0 0 672 672" id="coat">
  <path d="m174.887 356.254-58.35 181.534a7 7 0 0 1-8.676 4.562l-44.237-13.271a7 7 0 0 1-4.8-8.3l92.474-394.553 14.252 138.959Zm186.233-101.69-25.2-57.286-60.143-145.606a7 7 0 0 1 6.47-9.672h107.578a7 7 0 0 1 6.477 9.655l-52.655 128.436 26.1 59.307L456.9 149.43l-39.657-17a7 7 0 0 1-4.123-7.726 7.238 7.238 0 0 1 4.912-5.43l34.868-11.618-17.921-47.779-26.9-29.586A7 7 0 0 0 402.9 28H269.1a7 7 0 0 0-5.18 2.291l-26.9 29.586-17.92 47.779 34.921 11.644a7.181 7.181 0 0 1 4.711 4.774 7.007 7.007 0 0 1-3.974 8.365l-39.657 17L397.878 338.1l-36.755-83.53Zm121.9 102.814a6.988 6.988 0 0 1 .016-1.092l26.887-262.144a7 7 0 0 0-4.572-7.293l-52.46-19.076 15.664 41.769a7.018 7.018 0 0 1-1.894 7.689 7.269 7.269 0 0 1-2.6 1.461l-24.38 8.126 31.907 13.675a7.218 7.218 0 0 1 3.513 3.063 7.015 7.015 0 0 1-1.074 8.315l-98.2 101.363 50.576 114.947.007.019a7.006 7.006 0 0 1 .364 1.078c.013.051.027.1.039.152a7.051 7.051 0 0 1 .157 1.046c0 .074.007.147.011.222 0 .1.015.2.015.3V644h68.965a7 7 0 0 0 6.982-7.5l-19.929-279c.001-.042.007-.082.006-.122Zm37.687-231.154-14.253 138.959-9.341 91.071 58.35 181.534a7 7 0 0 0 8.676 4.562l44.237-13.271a7 7 0 0 0 4.8-8.3Zm-322.734 25.647L413 373.834V644H176.035a7 7 0 0 1-6.982-7.5l19.929-279v-.121a6.988 6.988 0 0 0-.016-1.092L162.077 94.142a7 7 0 0 1 4.572-7.293l52.46-19.076-15.664 41.769a7.021 7.021 0 0 0 1.891 7.688 7.25 7.25 0 0 0 2.595 1.459l24.388 8.13-31.907 13.674a7.223 7.223 0 0 0-3.513 3.063 7.015 7.015 0 0 0 1.074 8.315ZM364 385a14 14 0 1 0 14-14 14 14 0 0 0-14 14Zm0 98a14 14 0 1 0 14-14 14 14 0 0 0-14 14Zm-84-98a14 14 0 1 0 14-14 14 14 0 0 0-14 14Zm0 98a14 14 0 1 0 14-14 14 14 0 0 0-14 14Z"></path>
</svg>
