<svg xmlns="http://www.w3.org/2000/svg" width="1024" height="1024"><path d="M998.4 819.2h-128V283.92c0-43.616-34.448-79.12-76.8-79.12H614.4v102.4H768v614.4h230.4c14.144 0 25.6-11.456 25.6-25.6v-51.2c0-14.144-11.456-25.6-25.6-25.6zM499.584 104.016l-307.2 79.584c-22.8 5.904-38.784 27.12-38.784 51.472V819.2h-128C11.456 819.2 0 830.656 0 844.8V896c0 14.144 11.456 25.6 25.6 25.6h537.6V155.488c0-34.528-31.296-59.856-63.616-51.472zM422.4 563.2c-21.2 0-38.4-22.928-38.4-51.2s17.2-51.2 38.4-51.2 38.4 22.928 38.4 51.2-17.2 51.2-38.4 51.2z"/></svg>