<svg xmlns="http://www.w3.org/2000/svg" viewBox="0 0 32 32" id="dress">
  <path d="M9.289 11.5H22.71c.606-1.407 1.476-2.951 2.128-3.956a1 1 0 0 0-.132-1.251l-4-4a1 1 0 0 0-1.487.082l-1.988 2.48c-.759.91-1.114 1.008-1.232 1.008s-.473-.098-1.22-.994l-2-2.495a1 1 0 0 0-1.487-.081l-4 4a1 1 0 0 0-.132 1.251c.652 1.005 1.522 2.55 2.128 3.956zm12.83 3.5A5.866 5.866 0 0 1 22 13.994c-.003-.395.122-.915.32-1.494H9.68c.198.578.323 1.099.32 1.494-.002.296-.05.64-.12 1.006h12.24zm5.736 12.481c-1.342-2.21-4.45-7.807-5.498-11.481H9.643c-1.048 3.673-4.157 9.27-5.498 11.481a1.002 1.002 0 0 0 .619 1.49C4.936 29.015 9.069 30 16 30c7.018 0 11.072-.987 11.241-1.03a1 1 0 0 0 .614-1.489z"></path>
</svg>
