<svg xmlns="http://www.w3.org/2000/svg" viewBox="0 0 64 64" id="formal-shoes">
  <path d="M54.56 36.79l-.2.42c-.1.12-.91.85-6.26 3.15a20.37038 20.37038 0 01-16.38-.16c-5.03-2.28-5.81995-2.71-5.87-2.74a1.0038 1.0038 0 00-.66-.25h-.04c-6.43005.24-13.97.16-15.27-.38995A.301.301 0 009.82 36.71c-1.22-2.21-.51-6.72.05-9.1 3.42.43 14.32 1.56 18.13-1.06l4.8 3a1.00174 1.00174 0 001.06-1.7L26.57 23.3l2.36-1.18 12.75 6.37c.28.14 6.89 3.44 10.87 4.3a2.81852 2.81852 0 011.78 1.17l.06.09A2.72031 2.72031 0 0154.56 36.79zM20 39.34V42H10V38.87C11.49 39.18 14.36 39.42 20 39.34z"></path>
</svg>
