<!-- Generated by IcoMoon.io -->
<svg version="1.1" xmlns="http://www.w3.org/2000/svg" width="1024" height="1024" viewBox="0 0 1024 1024">
<g id="icomoon-ignore">
</g>
<path d="M85.333 213.333c0-40.227 0-60.34 12.497-72.837s32.61-12.497 72.837-12.497h682.667c40.226 0 60.339 0 72.836 12.497s12.497 32.61 12.497 72.837c0 40.227 0 60.34-12.497 72.837s-32.61 12.497-72.836 12.497h-682.667c-40.227 0-60.34 0-72.837-12.497s-12.497-32.61-12.497-72.837z"></path>
<path d="M856.273 362.664c6.025 0.003 12.211 0.005 18.394-0.080v192.079c0 160.905 0 241.361-49.988 291.345-49.984 49.988-130.441 49.988-291.345 49.988h-42.667c-160.906 0-241.359 0-291.346-49.988-49.987-49.984-49.987-130.441-49.987-291.345v-192.079c6.182 0.085 12.373 0.083 18.395 0.080h312.271v279.274l-72.214-80.239c-11.823-13.137-32.056-14.199-45.193-2.377s-14.201 32.055-2.378 45.193l127.998 142.221c6.071 6.741 14.716 10.594 23.787 10.594s17.715-3.853 23.787-10.594l128-142.221c11.823-13.137 10.756-33.37-2.381-45.193s-33.37-10.761-45.193 2.377l-72.213 80.239v-279.274h312.273z"></path>
</svg>
