<svg xmlns="http://www.w3.org/2000/svg" viewBox="0 0 672 672" id="high-heel">
  <path d="M98.017 553H62.91c-.506-26.682-3.852-125.964-25.855-235.709a456.15 456.15 0 0 1 80.774 29.542C113.134 366.706 98.586 437.438 98.017 553Zm493.407 7H427c-56.388 0-79.034-29.873-107.706-67.694-12.188-16.077-24.79-32.7-41.344-49.256-41.019-41.019-96.614-80.738-148.746-106.276a6.586 6.586 0 0 0-.239-.116c-45.008-22.015-82.272-31.639-95.007-34.54A229.981 229.981 0 0 1 54.98 153.306a235.693 235.693 0 0 1 36.071-52.356l324 324c13.305 13.306 27.964 19.03 43.576 17.009 28.963-3.749 52.304-33.739 61.373-47.107l101.11 69.181A52.576 52.576 0 0 1 591.424 560Z"></path>
</svg>
