<svg fill="#1A1A1A" xmlns="http://www.w3.org/2000/svg"  viewBox="0 0 64 64" width="100px" height="100px"><path d="M24.628 14.321L25 14.501l.001 0c.876.549 1.947.583 2.974.135 1.017-.434 1.871-1.359 2.128-2.269l.053.018-.146-8.31c-3.22.24-6.206 1.092-8.794 2.592L24.628 14.321zM38.999 14.501l.001 0 .372-.179 3.411-7.654c-2.587-1.5-5.574-2.352-8.794-2.592l-.146 8.31.053-.018c.257.911 1.111 1.835 2.128 2.269C37.052 15.085 38.123 15.05 38.999 14.501zM26.556 18.647l3.862 8.665-.168-9.547c-.278.147-.562.284-.855.399C28.51 18.505 27.541 18.677 26.556 18.647zM33.75 17.765l-.168 9.547 3.862-8.665c-.985.03-1.954-.142-2.839-.484C34.312 18.049 34.028 17.912 33.75 17.765zM41.815 15.795L41.802 16c-.132 2.149.273 4.297 1.406 6.072.986 1.582 2.559 2.802 4.379 3.659C48.279 24.297 48.785 22.722 49 21c3 10-.5 18-5 21-3-1-6.5-4-8-7 3.441-.688 7.828-3.271 10.556-7.421-.859-.31-1.705-.69-2.511-1.174-1.156-.691-2.228-1.594-3.101-2.683-.655-.807-1.183-1.702-1.595-2.647L33.471 33.66l-.008.483 8.959 20.102C48.166 47.549 52 36.118 52 26c0-8.334-2.615-14.054-6.743-17.576L41.815 15.795zM36.823 47.138l-3.459-7.407-.17 9.69c.173-.17.351-.332.535-.487C34.663 48.156 35.717 47.579 36.823 47.138zM30.538 34.144l-.008-.483-5.877-12.585c-.413.944-.94 1.839-1.595 2.647-.873 1.089-1.944 1.992-3.101 2.683-.776.465-1.589.833-2.415 1.137 2.726 4.171 7.127 6.768 10.578 7.458-1.5 3-5 6-8 7-4.5-3-8-11-5-21 .213 1.704.71 3.263 1.391 4.686 1.779-.854 3.314-2.06 4.283-3.613 1.134-1.775 1.539-3.923 1.406-6.072l-.013-.206-3.442-7.371C14.615 11.946 12 17.666 12 26c0 10.118 3.834 21.55 9.579 28.245L30.538 34.144zM38.413 50.541c-1.038.111-2.061.382-2.962.852-1.052.548-1.904 1.385-2.334 2.475l-.107 6.08c2.823-.289 5.49-1.78 7.887-4.089L38.413 50.541zM30.271 48.935c.184.154.362.317.535.487l-.17-9.69-3.459 7.407C28.283 47.579 29.337 48.156 30.271 48.935zM23.104 55.859c2.396 2.308 5.063 3.8 7.887 4.089l-.107-6.08c-.43-1.09-1.282-1.927-2.334-2.475-.902-.47-1.924-.741-2.962-.852L23.104 55.859z"/></svg>