<svg xmlns="http://www.w3.org/2000/svg" width="1024" height="1024"><path d="m706.398 550.665-19.435 19.319s-46.191 45.931-172.271-79.437c-126.079-125.363-79.889-171.291-79.889-171.291l12.237-12.168c30.148-29.975 32.99-78.1 6.686-113.233l-53.8-71.868c-32.554-43.484-95.458-49.228-132.771-12.128l-66.97 66.589c-18.501 18.396-30.899 42.243-29.396 68.697 3.846 67.678 34.467 213.295 205.332 383.189 181.194 180.164 351.208 187.324 420.733 180.843 21.99-2.048 41.114-13.248 56.525-28.574l60.612-60.262c40.913-40.683 29.376-110.426-22.972-138.88l-81.515-44.314c-34.372-18.684-76.245-13.197-103.108 13.517z"/></svg>