<!DOCTYPE svg PUBLIC "-//W3C//DTD SVG 1.1//EN" "http://www.w3.org/Graphics/SVG/1.1/DTD/svg11.dtd">

<!-- Uploaded to: SVG Repo, www.svgrepo.com, Transformed by: SVG Repo Mixer Tools -->
<svg version="1.1" id="Layer_1" xmlns="http://www.w3.org/2000/svg" xmlns:xlink="http://www.w3.org/1999/xlink" viewBox="0 0 512 512" xml:space="preserve" width="800px" height="800px" fill="#000000">

<g id="SVGRepo_bgCarrier" stroke-width="0"/>

<g id="SVGRepo_tracerCarrier" stroke-linecap="round" stroke-linejoin="round"/>

<g id="SVGRepo_iconCarrier"> <path style="fill:#000000;" d="M144.84,241.586L105.345,512h301.31L367.16,241.586c-2.467-16.893-10.138-31.894-21.263-43.465 c-2.291-2.396-4.734-4.64-7.307-6.731c19.959-21.134,30.908-48.658,30.908-77.862c0-30.32-11.806-58.831-33.245-80.27 C314.814,11.806,286.303,0,255.982,0c-30.332,0-58.831,11.806-80.282,33.257c-43.477,43.477-44.253,113.727-2.314,158.156 c-2.573,2.091-5.016,4.335-7.295,6.731C154.966,209.715,147.307,224.705,144.84,241.586z"/> <path d="M362.559,448.566c-3.451,0-6.727-2.041-8.136-5.424l-26.432-63.436 c-1.871-4.492,0.253-9.651,4.744-11.522c4.491-1.874,9.649,0.253,11.522,4.744l26.432,63.436c1.871,4.492-0.253,9.651-4.744,11.522 C364.836,448.348,363.688,448.566,362.559,448.566z"/> <path style="fill:#000000;" d="M338.59,191.389c-0.764,0.811-1.551,1.621-2.338,2.408l-80.27,80.27l-34.443-80.27 c-0.329-0.787-0.67-1.586-0.987-2.385c-17.997-44.429-17.656-114.678,0.987-158.156C230.749,11.806,242.978,0,255.982,0 c-30.332,0-58.831,11.806-80.282,33.257c-43.477,43.477-44.253,113.727-2.314,158.156c-0.001,0.001-0.002,0.002-0.004,0.004 c-1.175,0.953-2.312,1.95-3.43,2.967c-0.244,0.222-0.483,0.449-0.725,0.674c-1.07,0.999-2.116,2.023-3.13,3.079 c-0.002,0.002-0.005,0.005-0.007,0.007l0,0c-11.108,11.576-18.788,26.559-21.251,43.442L105.345,512h82.079l5.384-270.414 c0.628-4.308,1.607-8.489,2.89-12.523l60.284,60.276l80.27-80.27c0.787-0.787,1.574-1.598,2.338-2.408 c2.596-2.737,5.028-5.592,7.307-8.54C343.607,195.724,341.163,193.48,338.59,191.389z"/> <g> <path style="fill:#ffffff;" d="M149.441,448.566c-1.13,0-2.277-0.219-3.386-0.68c-4.491-1.871-6.615-7.03-4.744-11.522 l26.432-63.436c1.871-4.492,7.028-6.616,11.522-4.744c4.491,1.871,6.615,7.03,4.744,11.522l-26.432,63.436 C156.168,446.526,152.892,448.566,149.441,448.566z"/> <path d="M331.8,94.085c6.626,25.891-0.2,54.52-20.476,74.796l-40.529,40.537 c-8.181,8.183-21.446,8.183-29.628,0.001l-40.539-40.539c-20.276-20.276-27.101-48.905-20.476-74.796 c4.746-18.561,25.351-27.724,42.843-19.924c10.079,4.488,21.239,6.99,32.987,6.99c11.736,0,22.896-2.502,32.975-6.99 C306.449,66.361,327.054,75.524,331.8,94.085z"/> <rect x="250.115" y="181.134" width="11.747" height="330.866"/> </g> </g>

</svg>