<svg id="SvgjsSvg1001" width="288" height="288"
    xmlns="http://www.w3.org/2000/svg" version="1.1"
    xmlns:xlink="http://www.w3.org/1999/xlink"
    xmlns:svgjs="http://svgjs.com/svgjs">
    <defs id="SvgjsDefs1002"></defs>
    <g id="SvgjsG1008">
        <svg xmlns="http://www.w3.org/2000/svg" data-name="Layer 1" viewBox="0 0 512 512" width="288" height="288">
            <path d="m363.5 313.5 58.83 187.48 68.89-10.87-96.61-299.355a60 60 0 0 0-43.41-39.989L256.197 128.5l-96.032 22.517a60 60 0 0 0-42.86 38.381L10.78 490.11l68.9 10.87L150.5 311.5l-11 31-1.43 66.464v95.807H374.04v-95.807l.461-60.464" class="colorfdd402 svgShape"></path>
            <path d="M374.039 512.271H138.07a7.5 7.5 0 0 1-7.5-7.5v-95.807c0-.054 0-.108.002-.161l1.43-66.464a7.5 7.5 0 1 1 14.996.322l-1.428 66.383v88.227H366.54v-88.307l.461-60.521a7.5 7.5 0 0 1 7.499-7.443h.058a7.5 7.5 0 0 1 7.443 7.557l-.461 60.464v95.75a7.5 7.5 0 0 1-7.5 7.5Z" class="color2c2b2d svgShape"></path>
            <path d="M256.054 512.271a7.5 7.5 0 0 1-7.5-7.5V143.318a7.5 7.5 0 0 1 15 0v361.453a7.5 7.5 0 0 1-7.5 7.5Z" class="color2c2b2d svgShape"></path>
            <path d="M422.325 508.48a7.501 7.501 0 0 1-7.15-5.254l-58.83-187.48a7.5 7.5 0 0 1 14.31-4.492l56.895 181.31 53.84-8.496-93.918-291.009a52.779 52.779 0 0 0-37.983-34.99l-93.293-21.866-94.32 22.116a52.282 52.282 0 0 0-37.502 33.583L20.863 484.108l53.936 8.51 68.676-183.744a7.5 7.5 0 1 1 14.05 5.252l-70.82 189.48a7.495 7.495 0 0 1-8.194 4.782l-68.9-10.87a7.5 7.5 0 0 1-5.9-9.913l106.524-300.711a67.218 67.218 0 0 1 48.217-43.18l96.032-22.516a7.493 7.493 0 0 1 3.423 0l95.005 22.266a67.858 67.858 0 0 1 48.835 44.988l96.61 299.354a7.5 7.5 0 0 1-5.968 9.712l-68.89 10.87a7.49 7.49 0 0 1-1.174.092ZM411.5 466.5l68-14" class="color2c2b2d svgShape"></path>
            <path d="M411.492 474.001a7.5 7.5 0 0 1-1.504-14.847l68-14a7.5 7.5 0 0 1 3.024 14.692l-68 14a7.5 7.5 0 0 1-1.52.155ZM93.5 464.5l-69-12M93.509 472.001a7.543 7.543 0 0 1-1.294-.112l-69-12a7.5 7.5 0 1 1 2.57-14.778l69 12A7.5 7.5 0 0 1 93.51 472zM311.5 276a7.5 7.5 0 0 1-7.5-7.5V130.765a7.5 7.5 0 1 1 15 0V268.5a7.5 7.5 0 0 1-7.5 7.5zm-111 0a7.5 7.5 0 0 1-7.5-7.5V130.765a7.5 7.5 0 1 1 15 0V268.5a7.5 7.5 0 0 1-7.5 7.5z" class="color2c2b2d svgShape"></path>
            <path d="M254.626 182.877c-43.662-6.69-81.705-40.803-81.874-84.242-.066-17.154 5.562-33.404 15.23-47.79C202.96 28.559 226.61 7.643 256.105 7.643c33.715 0 62.576 26.941 75.99 54.324 13.648 27.858 8.314 60.997-12.229 84.7-10.136 11.694-24.016 21.078-38.356 27.553-6.292 2.841-19.5 9.788-26.884 8.657Z" class="colorfdd402 svgShape"></path>
            <path d="M256.375 190.501a19.062 19.062 0 0 1-2.885-.21 111.967 111.967 0 0 1-61.38-30.416c-17.232-17.008-26.77-38.747-26.858-61.21-.068-17.852 5.639-35.834 16.505-52.004C193.433 29.288 218.617.143 256.104.143c37.342 0 68.457 29.394 82.727 58.525 14.748 30.104 9.528 66.574-13.297 92.91-12.938 14.928-29.403 24.27-40.937 29.478-.836.377-1.798.83-2.855 1.327-9.129 4.292-17.946 8.118-25.367 8.118Zm-.27-175.358c-30.534 0-51.887 24.99-61.898 39.885-9.318 13.865-14.013 28.527-13.955 43.578.145 37.243 32.607 70.284 75.51 76.857 4.104.629 14.961-4.475 19.597-6.654a231.093 231.093 0 0 1 3.065-1.424c14.367-6.488 27.072-15.59 35.775-25.63 18.874-21.778 23.255-51.801 11.161-76.488-12.221-24.95-38.376-50.123-69.256-50.124Z" class="color2c2b2d svgShape"></path>
            <path d="M299.08 92.332c0 23.823-19.073 90.375-42.896 90.375s-43.376-66.552-43.376-90.375a43.136 43.136 0 0 1 86.271 0Z" class="colorffdaa7 svgShape"></path>
            <path d="M256.184 190.207c-17.487 0-30.09-22.275-37.583-40.962-7.703-19.208-13.293-43.143-13.293-56.913a50.636 50.636 0 0 1 101.272 0c0 13.824-5.484 37.744-13.039 56.876-7.386 18.704-19.862 40.999-37.357 40.999Zm-.24-133.51a35.676 35.676 0 0 0-35.636 35.635c0 10.116 4.28 31.544 12.215 51.33 9.337 23.283 18.581 31.545 23.66 31.545 5.058 0 14.223-8.252 23.406-31.508 7.788-19.722 11.99-41.185 11.99-51.367a35.676 35.676 0 0 0-35.635-35.636Z" class="color2c2b2d svgShape"></path>
        </svg>
    </g>
</svg>