<!-- Generated by IcoMoon.io -->
<svg version="1.1" xmlns="http://www.w3.org/2000/svg" width="1024" height="1024" viewBox="0 0 1024 1024">
<g id="icomoon-ignore">
</g>
<path d="M85.333 213.333c0-40.227 0-60.34 12.497-72.837s32.61-12.497 72.837-12.497h682.667c40.226 0 60.339 0 72.836 12.497s12.497 32.61 12.497 72.837c0 40.227 0 60.34-12.497 72.837s-32.61 12.497-72.836 12.497h-682.667c-40.227 0-60.34 0-72.837-12.497s-12.497-32.61-12.497-72.837z"></path>
<path d="M856.273 362.664c6.025 0.003 12.211 0.005 18.394-0.080v192.079c0 160.905 0 241.361-49.988 291.345-48.87 48.87-126.857 49.963-280.678 49.988v-300.612l72.213 80.239c11.823 13.137 32.055 14.204 45.193 2.381s14.204-32.055 2.381-45.193l-128-142.221c-6.071-6.746-14.716-10.594-23.787-10.594s-17.715 3.849-23.787 10.594l-127.998 142.221c-11.823 13.137-10.758 33.37 2.378 45.193s33.37 10.756 45.193-2.381l72.214-80.239v300.612c-153.82-0.026-231.809-1.118-280.68-49.988-49.987-49.984-49.987-130.441-49.987-291.345v-192.079c6.182 0.085 12.373 0.083 18.395 0.080h688.544z"></path>
</svg>
