<!-- Generated by IcoMoon.io -->
<svg version="1.1" xmlns="http://www.w3.org/2000/svg" width="1024" height="1024" viewBox="0 0 1024 1024">
<g id="icomoon-ignore">
</g>
<path d="M609.229 91.829c21.069 8.661 37.807 25.273 46.532 46.182 3.985 9.545 5.542 20.644 6.153 36.835 0.9 23.796 13.197 45.823 33.975 57.729s46.148 11.462 67.362 0.335c14.43-7.571 24.896-11.781 35.217-13.129 22.609-2.954 45.474 3.126 63.565 16.904 13.572 10.333 23.586 27.55 43.618 61.983s30.046 51.65 32.282 68.479c2.974 22.438-3.153 45.131-17.033 63.084-6.34 8.201-15.245 15.087-29.073 23.71-20.314 12.668-33.387 34.244-33.387 58.057s13.073 45.397 33.387 58.065c13.824 8.619 22.729 15.509 29.069 23.706 13.879 17.954 20.006 40.649 17.033 63.087-2.236 16.828-12.25 34.044-32.282 68.476-20.032 34.436-30.046 51.652-43.618 61.986-18.091 13.777-40.956 19.857-63.565 16.9-10.321-1.348-20.783-5.555-35.217-13.124-21.214-11.127-46.583-11.575-67.362 0.333s-33.071 33.933-33.967 57.728c-0.61 16.192-2.172 27.294-6.157 36.838-8.725 20.907-25.463 37.521-46.532 46.182-15.799 6.494-35.831 6.494-75.895 6.494s-60.096 0-75.895-6.494c-21.069-8.661-37.807-25.276-46.534-46.182-3.984-9.545-5.543-20.646-6.153-36.834-0.897-23.799-13.193-45.824-33.972-57.732-20.78-11.904-46.148-11.46-67.362-0.333-14.433 7.569-24.898 11.78-35.219 13.129-22.609 2.953-45.475-3.127-63.566-16.905-13.569-10.33-23.585-27.55-43.616-61.982s-30.047-51.652-32.279-68.48c-2.976-22.438 3.15-45.129 17.033-63.083 6.337-8.196 15.244-15.087 29.067-23.71 20.316-12.668 33.389-34.249 33.391-58.061s-13.072-45.397-33.391-58.069c-13.821-8.619-22.726-15.505-29.062-23.701-13.882-17.956-20.009-40.649-17.033-63.087 2.232-16.829 12.248-34.045 32.279-68.479s30.048-51.65 43.616-61.983c18.092-13.777 40.957-19.858 63.566-16.904 10.321 1.348 20.787 5.559 35.221 13.13 21.212 11.127 46.579 11.571 67.357-0.334s33.074-33.931 33.97-57.725c0.61-16.192 2.169-27.292 6.153-36.837 8.727-20.909 25.465-37.521 46.534-46.182 15.799-6.496 35.831-6.496 75.895-6.496s60.096 0 75.895 6.496zM533.333 640c71.232 0 128.973-57.306 128.973-128s-57.741-128-128.973-128c-71.232 0-128.975 57.306-128.975 128s57.743 128 128.975 128z"></path>
</svg>
