<svg xmlns="http://www.w3.org/2000/svg" viewBox="0 0 32 32" id="shoes">
  <path d="M14.5 20.5a1.57 1.57 0 0 1-.25-.2L13 19a1.49 1.49 0 0 1-.15-1.94 25.71 25.71 0 0 1-3.57.74l-.37.05A15.15 15.15 0 0 1 7 18a6 6 0 0 0-5 2.59 1.43 1.43 0 0 1 .5-.09zm.55-4.27a6.63 6.63 0 0 1-.6.29 1.43 1.43 0 0 1 .62.35 1.54 1.54 0 0 1-.02-.64zM17 14.81l-.26.23a1.11 1.11 0 0 1 .3.08 1.06 1.06 0 0 1-.04-.31zM30 11H20a1 1 0 0 0-.94.65 9.76 9.76 0 0 1-.84 1.68 1.49 1.49 0 0 1 1.36.41l1.11 1.1a1.51 1.51 0 0 1 0 2.12 1.47 1.47 0 0 1-1.06.44 1.26 1.26 0 0 1-.47-.08 1.46 1.46 0 0 1-.38 1.46 1.5 1.5 0 0 1-1.06.44 1.47 1.47 0 0 1-1-.36 1.58 1.58 0 0 1 0 .38 1.47 1.47 0 0 1-.44 1.06 1.57 1.57 0 0 1-.25.2H30a1.47 1.47 0 0 1 1 .39V12a1 1 0 0 0-1-1zm0 10H2.54a1 1 0 0 0-.87.5A4.87 4.87 0 0 0 1 24v.89A2.13 2.13 0 0 0 3.13 27H16a1 1 0 0 0 .6-.2L19 25v1a1 1 0 0 0 1 1h10a1 1 0 0 0 1-1v-4a1 1 0 0 0-1-1z"></path>
  <path d="M14.6 19.94a1 1 0 0 0 .71.3 1 1 0 0 0 .69-1.71l-1.29-1.29a1 1 0 0 0-1.41 0 1 1 0 0 0 0 1.42zm2.4-1.52a1 1 0 0 0 .7.3 1 1 0 0 0 .73-1.72l-1.2-1.2a1 1 0 0 0-1.42 0 1 1 0 0 0 0 1.41zm1.92-1.81a1 1 0 0 0 .71.29 1 1 0 0 0 .7-.29 1 1 0 0 0 0-1.41l-1.1-1.11a1 1 0 0 0-1.42 1.42zM30 10.5a1.47 1.47 0 0 1 1 .37v-3.4A2.47 2.47 0 0 0 28.51 5h-7A2.48 2.48 0 0 0 19 7.47v3.43a1.45 1.45 0 0 1 1-.4z"></path>
</svg>
