<svg xmlns="http://www.w3.org/2000/svg" viewBox="0 0 50 50" id="shorts">
  <path stroke="transparent" d="M45.9 46.3c-3.9 1.6-9.5 2.3-15.9 2.7l-5.8-20.8-3.6 20.8c-6.6.2-12.5-.1-16.5-2 1.2-15.4 2.7-30 5.6-41h11.8c-.3 4.6-1.1 9.6-1.8 10.2-.9.7-3.2.5-4 .4-.3-.1-.7.2-.8.5-.1.3.2.7.5.7 1 .2 3.7.4 5.1-.6 1.4-1.1 2-8.2 2.3-11.2h2.4c.7 4.8 1 10.1.4 11-1 1.5-4.1 3.3-4.1 3.3-.3.2-.4.6-.2.9.2.3.6.4.9.2.1-.1 3.4-2 4.5-3.7 1.1-1.6.2-9-.2-11.7h12.2C42.4 16.8 44.5 31 45.9 46.3zM39 1.6V4c0 .3-.3.6-.6.6h-12c0-.3-.1-.5-.1-.7-.1-.3-.4-.6-.7-.5-.3.1-.6.4-.5.7 0 .2.1.3.1.5h-2.4c0-.2 0-.4 0-.6 0-.4-.2-.7-.6-.7-.4 0-.7.2-.7.6 0 .2 0 .4-.1.7H9.9C9.6 4.6 9.3 4.3 9.3 4V1.6C9.3 1.3 9.6 1 9.9 1h28.5C38.8 1 39 1.3 39 1.6z"></path>
</svg>
