<svg xmlns="http://www.w3.org/2000/svg" viewBox="0 0 32 32" id="short-skirt">
  <path d="m3.933 20.188 4.373-7.67L5.1 9.893l-3.015 7.371a1.15 1.15 0 0 0 .219 1.218l1.628 1.706zm21.263-14.48H6.804c-.374 1.068.222 1.716-1.265 3.145l3.78 3.1 3.423 2.32.838.284c.78.264 1.6.397 2.42.397.82 0 1.64-.133 2.42-.397l.838-.284 3.422-2.32 3.78-3.1c-1.486-1.43-.89-2.077-1.264-3.145zm-1.501 6.81 4.372 7.67 1.629-1.707a1.15 1.15 0 0 0 .218-1.218L26.9 9.893l-3.204 2.626zM11.91 15.017 9.18 13.164 4.256 21.8c-.115.28-.119.598-.005.879.115.283.336.5.609.595l5.315 1.857 1.735-10.114zm10.911-1.852-2.731 1.852 1.735 10.114 5.315-1.857c.273-.095.494-.312.61-.595.113-.28.11-.6-.006-.879l-4.923-8.635zm-1.974 12.637-1.77-10.324-.313.106a8.607 8.607 0 0 1-2.764.454 8.605 8.605 0 0 1-2.764-.454l-.312-.106-1.77 10.319v1.903c.065.042.129.086.203.113C11.919 28.01 14.787 29 16 29c1.214 0 4.081-.99 4.643-1.188a.97.97 0 0 0 .243-.135l-.04-1.876zm3.967-21.176-.285-.895c-.14-.437-.519-.73-.945-.73H8.416c-.426 0-.806.293-.945.73l-.285.895h17.628z"></path>
</svg>
