<svg xmlns="http://www.w3.org/2000/svg" enable-background="new 0 0 512 512" viewBox="0 0 512 512" id="slippers">
  <path d="M215.539 144.17c-68.153-21.706-135.801-20.069-198.048-.03-1.672.538-3.243 1.261-4.712 2.119-.006.003-.011.006-.017.009C5.572 150.473 1 158.222 1 166.868v49.45c0 14.869 13.434 26.187 28.022 23.548 55.595-10.038 114.874-10.707 174.973.043 14.624 2.618 28.098-8.626 28.098-23.532v-49.458C232.094 156.465 225.441 147.323 215.539 144.17zM201.19 255.597c-.323-.058-.648-.111-.971-.168v140.019c0 46.137-37.544 83.672-83.693 83.672-46.242 0-83.651-37.437-83.651-83.672V255.373c-.34.061-.68.117-1.02.178-5.12.924-10.154.811-14.917-.158v140.055c0 55.018 44.529 99.609 99.589 99.609 54.946 0 99.63-44.684 99.63-99.609V255.426C211.381 256.4 206.331 256.517 201.19 255.597z"></path>
  <path d="M116.526 463.182c37.361 0 67.755-30.385 67.755-67.734V252.885c-44.294-6.324-89.912-6.596-135.469-.073v142.637C48.813 432.877 79.097 463.182 116.526 463.182zM216.097 127.665c.028-3.859.046-7.713.06-11.113 0-55.031-44.543-99.609-99.609-99.609-54.925 0-99.609 44.684-99.609 99.609v11.068C82.129 107.563 150.064 107.533 216.097 127.665zM495.003 127.665c.028-3.859.046-7.713.06-11.113 0-55.031-44.543-99.609-99.609-99.609-54.925 0-99.609 44.684-99.609 99.609v11.068C361.035 107.563 428.97 107.533 495.003 127.665zM480.096 255.597c-.324-.058-.647-.111-.971-.168v140.019c0 46.137-37.544 83.672-83.693 83.672-46.242 0-83.651-37.437-83.651-83.672V255.372c-.34.061-.681.117-1.02.178-5.12.924-10.155.811-14.917-.158v140.055c0 55.018 44.529 99.609 99.589 99.609 54.946 0 99.63-44.684 99.63-99.609V255.425C490.288 256.399 485.237 256.517 480.096 255.597z"></path>
  <path d="M494.445 144.17c-63.501-20.224-131.246-21.536-198.048-.03-9.541 3.071-16.49 12.025-16.49 22.729v49.45c0 14.869 13.434 26.188 28.022 23.548 55.595-10.038 114.874-10.707 174.973.043 14.625 2.619 28.098-8.627 28.098-23.532v-49.458C511 156.465 504.347 147.323 494.445 144.17zM395.432 463.182c37.361 0 67.755-30.385 67.755-67.734V252.881c-46.461-6.635-92.068-6.279-135.469-.067v142.634C327.719 432.877 358.003 463.182 395.432 463.182z"></path>
</svg>
