<svg xmlns="http://www.w3.org/2000/svg" enable-background="new 0 0 32 32" viewBox="0 0 32 32" id="shoe">
  <g id="Shoe">
    <path d="M30 20.62v1.53c0 1.1-.89 1.99-1.99 1.99H3.99c-1.1 0-1.99-.89-1.99-1.99v-1.53H30zM20.72 13.35c-.177-.062-.349-.134-.521-.209-.039.151-.102.296-.22.414l-1.719 1.719c-.176.176-.406.264-.636.264s-.46-.088-.636-.264c-.352-.352-.352-.922 0-1.273l1.719-1.719c.001-.001.002-.001.003-.002-.121-.088-.243-.175-.359-.27l-.903-.743c-.019.024-.028.053-.05.075l-2.582 2.581c-.176.176-.406.264-.636.264s-.46-.088-.636-.264c-.352-.352-.352-.922 0-1.273l2.521-2.521L13.66 8.15c-.24-.2-.52-.29-.81-.29-.36 0-.73.16-.98.46-1.41 1.69-3.51 2.67-5.71 2.67H3.49c-.82 0-1.49.67-1.49 1.5v1.71h4.17c2.794 0 5.132 1.986 5.679 4.62H22.05v-5.007L20.72 13.35zM29.823 18.82c-.412-1.548-1.552-2.834-3.113-3.38l-2.86-1v4.38H29.823z"></path>
    <path d="M9.973,18.82C9.467,17.191,7.966,16,6.17,16H2v2.82H9.973z"></path>
  </g>
</svg>
