<svg xmlns="http://www.w3.org/2000/svg" viewBox="0 0 512 512" id="socks">
  <rect width="36" height="46" x="288" y="24"></rect>
  <rect width="35" height="66" x="299" y="84"></rect>
  <path d="M245.694,70H274V24H239V75.141C240,72.413,242.64,70,245.694,70Z"></path>
  <rect width="32" height="46" x="338" y="24"></rect>
  <rect width="32" height="66" x="398" y="84"></rect>
  <rect width="36" height="66" x="348" y="84"></rect>
  <path d="M324.61,338.6a80.162,80.162,0,0,1,95.85-78.695L420.25,164H266v89.692A42.912,42.912,0,0,1,251.321,285.9l-84.408,73.92a72.9,72.9,0,0,0,93.849,111.542l90.49-73.06A80.464,80.464,0,0,1,324.61,338.6Z"></path>
  <path d="M404.874 272.323a66.257 66.257 0 0 0-42.56 117.043l47.576-38.414a28.7 28.7 0 0 0 10.72-22.5l-.119-54.278A66.46 66.46 0 0 0 404.874 272.323zM157.725 349.3l84.368-73.92A28.912 28.912 0 0 0 252 253.692V164h-6.306A6.867 6.867 0 0 1 239 156.86V104H206v89.692A42.91 42.91 0 0 1 191.321 225.9l-84.408 73.921a72.906 72.906 0 0 0 21.5 122.714A86.737 86.737 0 0 1 157.725 349.3z"></path>
  <rect width="32" height="66" x="253" y="84"></rect>
  <rect width="32" height="66" x="193" y="24"></rect>
</svg>
