<svg xmlns="http://www.w3.org/2000/svg"  viewBox="0 0 32 32" id="t-shirt">
  <path stroke="transparent" d="M27.82001,4.82001c-0.16998-0.22003-0.39001-0.39001-0.65002-0.5l-6.20996-2.52002C20.54999,1.64001,20.06,1.64001,19.66998,1.87c-0.45996,0.22998-0.75,0.71997-0.78998,1.22998C18.67999,3.37,17.65997,3.91998,16,3.91998S13.32001,3.37,13.12,3.09998c-0.02002-1-1.15002-1.70996-2.06-1.31L4.83002,4.32001c-0.26001,0.10999-0.48004,0.27997-0.65002,0.5L0.78998,9.41998c-0.38,0.52002-0.38995,1.22998-0.00995,1.76001l3.66998,5.13c0.48999,0.70996,1.58002,0.83002,2.20996,0.23999l0.75,12.35999c0.04004,0.79004,0.70001,1.41003,1.49005,1.41003h14.19995c0.79004,0,1.45001-0.62,1.49005-1.41003l0.75-12.35999c0.62994,0.59003,1.71997,0.46997,2.20996-0.23999l3.66998-5.13c0.38-0.53003,0.37006-1.23999-0.00995-1.76001L27.82001,4.82001z"></path>
</svg>
