<svg xmlns="http://www.w3.org/2000/svg" width="32" height="32" viewBox="0 0 8.467 8.467" id="boating-vest">
  <g transform="translate(0 -288.533)">
    <path d="M1.0812628 295.41249l.081619 1.05833h2.6735757v-1.05833zM7.385404 295.41249l-.08162 1.05833H4.1010416v-1.05833zM.97923866 294.08958H3.836458v1.05833h-2.7756zM.95883386 293.82499l-.070111-.90911a3.517778 3.517778 0 0 0 .59671974-3.49625 3.3557723 3.3557723 0 0 1 1.2967625-.35714l1.3110825 3.2479a2.6458333 2.6458333 0 0 0-.2568298 1.13714v.37746zM4.1010416 293.82499H7.507832l.07011-.90911a3.517778 3.517778 0 0 1-.59672-3.49625 3.3557723 3.3557723 0 0 0-1.2967629-.35714l-1.4102961 3.49368a2.38125 2.38125 0 0 0-.1731214.89136zM7.4058089 295.14791l.08162-1.05833H4.1010416v1.05833zM3.300028 289.63844l-.140064-.34697a2.4450935 2.4450935 0 0 0 2.1467384 0l-.1400641.34697a2.7096768 2.7096768 0 0 1-1.8666103 0z"></path>
  </g>
</svg>
